# xmcd
#
# Track frame offsets:
#	150
#	17175
#	36825
#	56250
#	70125
#	88275
#	106050
#	126150
#	145200
#	162225
#	181875
#	201300
#	215175
#	233325
#	251100
#	271200
#
# Disc length: 3870 seconds
#
# Revision: 2
# Processed by: cddbd v1.5.2PL0 Copyright (c) Steve Scherf et al.
# Submitted via: audiograbber 1.83.01
#
DISCID=e60f1c10
DTITLE=Various Artist - SYB1657
DYEAR=1900
DGENRE=
TTITLE0=Swift, Taylor - Our Song
TTITLE1=Underwood, Carrie - Last Name
TTITLE2=Swift, Taylor - Should've Said No
TTITLE3=Lambert, Miranda - Gunpowder and Lead
TTITLE4=Underwood, Carrie - All-American Girl
TTITLE5=Swift, Taylor - Teardrops On My Guitar
TTITLE6=Rimes, LeAnn - Nothin' Better To Do
TTITLE7=Underwood, Carrie - So Small
TTITLE8=Swift, Taylor - Our Song (Vocal)
TTITLE9=Underwood, Carrie - Last Name (Vocal)
TTITLE10=Swift, Taylor - Should've Said No (Vocal)
TTITLE11=Lambert, Miranda - Gunpowder and Lead (Vocal)
TTITLE12=Underwood, Carrie - All-American Girl (Vocal)
TTITLE13=Swift, Taylor - Teardrops On My Guitar (Vocal)
TTITLE14=Rimes, LeAnn - Nothin' Better To Do (Vocal)
TTITLE15=Underwood, Carrie - So Small (Vocal)
EXTD=
EXTT0=
EXTT1=
EXTT2=
EXTT3=
EXTT4=
EXTT5=
EXTT6=
EXTT7=
EXTT8=
EXTT9=
EXTT10=
EXTT11=
EXTT12=
EXTT13=
EXTT14=
EXTT15=
PLAYORDER=
